<?xml version="1.0" encoding="utf-8"?>
<!-- Generator: Adobe Illustrator 16.0.0, SVG Export Plug-In . SVG Version: 6.00 Build 0)  -->
<!DOCTYPE svg PUBLIC "-//W3C//DTD SVG 1.1//EN" "http://www.w3.org/Graphics/SVG/1.1/DTD/svg11.dtd">
<svg version="1.1" id="Layer_1" xmlns="http://www.w3.org/2000/svg" xmlns:xlink="http://www.w3.org/1999/xlink" x="0px" y="0px"
	 width="839.1px" height="287.5px" viewBox="0 0 839.1 287.5" enable-background="new 0 0 839.1 287.5" xml:space="preserve">
<g>
	<g>
		<radialGradient id="SVGID_1_" cx="239.2871" cy="86.2544" r="140.8314" gradientUnits="userSpaceOnUse">
			<stop  offset="0" style="stop-color:#E14D3B"/>
			<stop  offset="0.65" style="stop-color:#D6412B"/>
			<stop  offset="0.9283" style="stop-color:#D03C29"/>
			<stop  offset="1" style="stop-color:#CD3A28"/>
		</radialGradient>
		<path fill="url(#SVGID_1_)" d="M286.366,205.65c-44.639,0-68.466-34.917-68.466-66.411c0-36.882,30.018-68.389,72.693-68.389
			c41.29,0,67.107,32.371,67.107,66.406C357.7,170.46,332.179,205.65,286.366,205.65z M321.743,182.774
			c6.777-8.907,8.416-19.995,8.416-30.946c0-24.54-11.781-71.328-46.553-71.328c-9.276,0-18.505,3.612-25.252,9.47
			c-10.945,9.725-12.912,21.984-12.912,33.991c0,27.619,13.75,73.04,47.651,73.04C304.079,197,315.285,191.727,321.743,182.774z"/>
		<linearGradient id="SVGID_2_" gradientUnits="userSpaceOnUse" x1="287.7998" y1="48.7949" x2="287.7998" y2="137.5742">
			<stop  offset="0" style="stop-color:#FFFFFF;stop-opacity:0.15"/>
			<stop  offset="1" style="stop-color:#FFFFFF;stop-opacity:0"/>
		</linearGradient>
		<path fill="url(#SVGID_2_)" d="M286.366,205.65c-44.639,0-68.466-34.917-68.466-66.411c0-36.882,30.018-68.389,72.693-68.389
			c41.29,0,67.107,32.371,67.107,66.406C357.7,170.46,332.179,205.65,286.366,205.65z M321.743,182.774
			c6.777-8.907,8.416-19.995,8.416-30.946c0-24.54-11.781-71.328-46.553-71.328c-9.276,0-18.505,3.612-25.252,9.47
			c-10.945,9.725-12.912,21.984-12.912,33.991c0,27.619,13.75,73.04,47.651,73.04C304.079,197,315.285,191.727,321.743,182.774z"/>
	</g>
	<g>
		<radialGradient id="SVGID_3_" cx="644.5674" cy="9.6992" r="205.2734" gradientUnits="userSpaceOnUse">
			<stop  offset="0" style="stop-color:#00A55D"/>
			<stop  offset="0.6949" style="stop-color:#009655"/>
			<stop  offset="0.886" style="stop-color:#00934F"/>
			<stop  offset="1" style="stop-color:#008F48"/>
		</radialGradient>
		<path fill="url(#SVGID_3_)" d="M709.798,201.74l8.302-8.29l-15.481-1.934c-3.918-0.476-6.818-3.743-6.818-7.767V19.25
			c0-2.041,0.823-3.939,2.161-5.277L708.199,3.75H661.8l-12,11.99h18.01v170.51c0,2.041-0.834,3.939-2.172,5.277l-10.238,10.213
			H709.798z"/>
		<linearGradient id="SVGID_4_" gradientUnits="userSpaceOnUse" x1="683.9502" y1="-29.8979" x2="683.9502" y2="79.9893">
			<stop  offset="0" style="stop-color:#FFFFFF;stop-opacity:0.15"/>
			<stop  offset="1" style="stop-color:#FFFFFF;stop-opacity:0"/>
		</linearGradient>
		<path opacity="0.5" fill="url(#SVGID_4_)" d="M709.798,201.74l8.302-8.29l-15.481-1.934c-3.918-0.476-6.818-3.743-6.818-7.767
			V19.25c0-2.041,0.823-3.939,2.161-5.277L708.199,3.75H661.8l-12,11.99h18.01v170.51c0,2.041-0.834,3.939-2.172,5.277
			l-10.238,10.213H709.798z"/>
	</g>
	<g>
		<radialGradient id="SVGID_5_" cx="738.9814" cy="86.2544" r="130.4966" gradientUnits="userSpaceOnUse">
			<stop  offset="0" style="stop-color:#E14D3B"/>
			<stop  offset="0.65" style="stop-color:#D6412B"/>
			<stop  offset="0.9283" style="stop-color:#D03C29"/>
			<stop  offset="1" style="stop-color:#CD3A28"/>
		</radialGradient>
		<path fill="url(#SVGID_5_)" d="M804.746,191.15c-24.904,0-47.865-17.983-56.092-49.922l86.122-34.796
			c-4.609-16.616-17.685-35.583-51.66-35.583c-27.997,0-62.217,21.302-62.217,64.73c0,34.213,22.9,70.07,66.567,70.07
			c9.059,0,23.228-0.573,37.685-10.929c5.478-3.822,10.097-8.419,13.948-13.472C829.464,186.009,819.194,191.15,804.746,191.15z
			 M777.932,80.35c15.314,0,28.068,12.69,28.068,23.9c0,3.929-2.828,5.605-8.211,7.572l-51.076,20.7
			C738.776,90.344,766.34,80.35,777.932,80.35z"/>
		<linearGradient id="SVGID_6_" gradientUnits="userSpaceOnUse" x1="779.999" y1="48.7949" x2="779.999" y2="137.5742">
			<stop  offset="0" style="stop-color:#FFFFFF;stop-opacity:0.15"/>
			<stop  offset="1" style="stop-color:#FFFFFF;stop-opacity:0"/>
		</linearGradient>
		<path fill="url(#SVGID_6_)" d="M804.746,191.15c-24.904,0-47.865-17.983-56.092-49.922l86.122-34.796
			c-4.609-16.616-17.685-35.583-51.66-35.583c-27.997,0-62.217,21.302-62.217,64.73c0,34.213,22.9,70.07,66.567,70.07
			c9.059,0,23.228-0.573,37.685-10.929c5.478-3.822,10.097-8.419,13.948-13.472C829.464,186.009,819.194,191.15,804.746,191.15z
			 M777.932,80.35c15.314,0,28.068,12.69,28.068,23.9c0,3.929-2.828,5.605-8.211,7.572l-51.076,20.7
			C738.776,90.344,766.34,80.35,777.932,80.35z"/>
	</g>
	<g>
		<radialGradient id="SVGID_7_" cx="392.2515" cy="91.708" r="137.0083" gradientUnits="userSpaceOnUse">
			<stop  offset="0" style="stop-color:#FFBD00"/>
			<stop  offset="1" style="stop-color:#FFB200"/>
		</radialGradient>
		<path fill="url(#SVGID_7_)" d="M440.366,205.65c-44.639,0-68.466-34.917-68.466-66.411c0-36.882,30.018-68.389,72.693-68.389
			c41.29,0,67.107,32.371,67.107,66.406C511.7,170.46,486.179,205.65,440.366,205.65z M475.743,182.774
			c6.777-8.907,8.416-19.995,8.416-30.946c0-24.54-11.781-71.328-46.554-71.328c-9.276,0-18.505,3.612-25.252,9.47
			c-10.946,9.725-12.913,21.984-12.913,33.991c0,27.619,13.751,73.04,47.651,73.04C458.079,197,469.285,191.727,475.743,182.774z"/>
		<linearGradient id="SVGID_8_" gradientUnits="userSpaceOnUse" x1="441.7998" y1="49.8647" x2="441.7998" y2="161.945">
			<stop  offset="0" style="stop-color:#FFFFFF;stop-opacity:0.15"/>
			<stop  offset="1" style="stop-color:#FFFFFF;stop-opacity:0"/>
		</linearGradient>
		<path fill="url(#SVGID_8_)" d="M440.366,205.65c-44.639,0-68.466-34.917-68.466-66.411c0-36.882,30.018-68.389,72.693-68.389
			c41.29,0,67.107,32.371,67.107,66.406C511.7,170.46,486.179,205.65,440.366,205.65z M475.743,182.774
			c6.777-8.907,8.416-19.995,8.416-30.946c0-24.54-11.781-71.328-46.554-71.328c-9.276,0-18.505,3.612-25.252,9.47
			c-10.946,9.725-12.913,21.984-12.913,33.991c0,27.619,13.751,73.04,47.651,73.04C458.079,197,469.285,191.727,475.743,182.774z"/>
	</g>
	<g>
		<radialGradient id="SVGID_9_" cx="539.8955" cy="88.9009" r="204.7357" gradientUnits="userSpaceOnUse">
			<stop  offset="0" style="stop-color:#1069EF"/>
			<stop  offset="0.6731" style="stop-color:#1066EA"/>
			<stop  offset="0.9949" style="stop-color:#1064E5"/>
		</radialGradient>
		<path fill="url(#SVGID_9_)" d="M623.815,193.795l-10.229-7.917c-3.108-2.564-7.486-5.946-7.486-12.181
			c0-6.286,4.048-11.082,7.699-13.916c12.219-9.486,23.9-19.613,23.9-40.565c0-19.077-11.502-30.2-18.661-36.476h15.871L646.8,70.85
			h-58.299C547.729,70.85,527,96.241,527,124.384c0,21.772,16.533,44.965,46.372,44.965c2.396,0,8.428,0,8.428,0
			c-1.078,3.019-2.2,6.431-2.2,10.4c0,8.777,4.132,13.335,8.45,18.2c-12.779,0.838-36.65,3.272-54.238,14.03
			C517.036,221.972,512,236.408,512,246.602c0,21.029,20.151,40.898,61.3,40.898c48.853,0,74.3-27.245,74.3-53.913
			C647.6,213.912,636.285,204.308,623.815,193.795z M587.67,161c-23.332,0-36.021-29.002-36.021-51.037
			c0-20.919,12.411-30.213,25.401-30.213c24.982,0,37.898,32.457,37.898,52.193C614.949,156.288,595.406,161,587.67,161z
			 M587.3,275.05c-30.369,0-50-14.522-50-34.686c0-20.116,18.161-26.959,24.42-29.248c11.915-3.984,27.254-4.517,29.851-4.517
			c2.801,0,4.219,0.008,6.467,0.241C619.651,222.289,629,229.889,629,244.377C629,260.537,614.493,275.05,587.3,275.05z"/>
		<radialGradient id="SVGID_10_" cx="540.127" cy="89.1328" r="202.5127" gradientUnits="userSpaceOnUse">
			<stop  offset="0" style="stop-color:#FFFFFF;stop-opacity:0.08"/>
			<stop  offset="1" style="stop-color:#FFFFFF;stop-opacity:0"/>
		</radialGradient>
		<path fill="url(#SVGID_10_)" d="M623.815,193.795l-10.229-7.917c-3.108-2.564-7.486-5.946-7.486-12.181
			c0-6.286,4.048-11.082,7.699-13.916c12.219-9.486,23.9-19.613,23.9-40.565c0-19.077-11.502-30.2-18.661-36.476h15.871L646.8,70.85
			h-58.299C547.729,70.85,527,96.241,527,124.384c0,21.772,16.533,44.965,46.372,44.965c2.396,0,8.428,0,8.428,0
			c-1.078,3.019-2.2,6.431-2.2,10.4c0,8.777,4.132,13.335,8.45,18.2c-12.779,0.838-36.65,3.272-54.238,14.03
			C517.036,221.972,512,236.408,512,246.602c0,21.029,20.151,40.898,61.3,40.898c48.853,0,74.3-27.245,74.3-53.913
			C647.6,213.912,636.285,204.308,623.815,193.795z M587.67,161c-23.332,0-36.021-29.002-36.021-51.037
			c0-20.919,12.411-30.213,25.401-30.213c24.982,0,37.898,32.457,37.898,52.193C614.949,156.288,595.406,161,587.67,161z
			 M587.3,275.05c-30.369,0-50-14.522-50-34.686c0-20.116,18.161-26.959,24.42-29.248c11.915-3.984,27.254-4.517,29.851-4.517
			c2.801,0,4.219,0.008,6.467,0.241C619.651,222.289,629,229.889,629,244.377C629,260.537,614.493,275.05,587.3,275.05z"/>
	</g>
	<g>
		<radialGradient id="SVGID_11_" cx="42.4199" cy="17.3721" r="228.0955" gradientUnits="userSpaceOnUse">
			<stop  offset="0" style="stop-color:#1069EF"/>
			<stop  offset="0.6731" style="stop-color:#1066EA"/>
			<stop  offset="0.9949" style="stop-color:#1064E5"/>
		</radialGradient>
		<path fill="url(#SVGID_11_)" d="M141.8,127.75l-12,11.99h36v50.639c-8.26,2.704-21.547,5.621-41.7,5.621
			c-54.258,0-93.6-47.868-93.6-101.595c0-49.004,32.224-83.358,76.486-83.358c25.691,0,43.619,8.336,58.814,22.772V50.35l27.4-27.4
			c-6.295-4.314-17.386-11.573-37.012-17.35C143.492,1.9,128.543,0,113.187,0C38.938,0,0,54.515,0,102.392
			C0,171.234,50.313,208.5,108.536,208.5c40.306,0,71.947-9.117,85.264-12.786V143.25c0-2.041,0.823-3.924,2.162-5.262L206.2,127.75
			H141.8z"/>
		<radialGradient id="SVGID_12_" cx="42.772" cy="17.5952" r="225.5753" gradientUnits="userSpaceOnUse">
			<stop  offset="0" style="stop-color:#FFFFFF;stop-opacity:0.08"/>
			<stop  offset="1" style="stop-color:#FFFFFF;stop-opacity:0"/>
		</radialGradient>
		<path fill="url(#SVGID_12_)" d="M141.8,127.75l-12,11.99h36v50.639c-8.26,2.704-21.547,5.621-41.7,5.621
			c-54.258,0-93.6-47.868-93.6-101.595c0-49.004,32.224-83.358,76.486-83.358c25.691,0,43.619,8.336,58.814,22.772V50.35l27.4-27.4
			c-6.295-4.314-17.386-11.573-37.012-17.35C143.492,1.9,128.543,0,113.187,0C38.938,0,0,54.515,0,102.392
			C0,171.234,50.313,208.5,108.536,208.5c40.306,0,71.947-9.117,85.264-12.786V143.25c0-2.041,0.823-3.924,2.162-5.262L206.2,127.75
			H141.8z"/>
	</g>
</g>
</svg>