<svg id="レイヤー_1" data-name="レイヤー 1" xmlns="http://www.w3.org/2000/svg" viewBox="0 0 446.33 116.44"><defs><style>.cls-1{fill:#ea9034;}.cls-2{fill:#141414;}</style></defs><title>Weblio-Logo-Basic_web</title><path class="cls-1" d="M106.44,97H127l11.79,55.73L150.82,97H171.9l-22.43,77.38h-20.8L116.53,118l-12.28,56.37h-21L61.51,97H83.23L95.3,152.5Z" transform="translate(-61.51 -60.55)"/><path class="cls-2" d="M233.47,98.55A31.5,31.5,0,0,1,246.85,110,38,38,0,0,1,253,126a100.19,100.19,0,0,1,.66,15.36H197.33q.47,11.65,8.08,16.33a20.59,20.59,0,0,0,11.16,2.91c4.6,0,8.35-1.18,11.23-3.55a17,17,0,0,0,4.17-5.33h20.65q-.82,6.89-7.5,14Q234.73,177,216,177a42.16,42.16,0,0,1-27.25-9.52q-11.82-9.52-11.81-31,0-20.1,10.66-30.84t27.67-10.73A44,44,0,0,1,233.47,98.55ZM203.21,116q-4.28,4.42-5.39,12h34.86q-.55-8.06-5.39-12.23a17.75,17.75,0,0,0-12-4.17Q207.49,111.6,203.21,116Z" transform="translate(-61.51 -60.55)"/><path class="cls-2" d="M330,106.28q8.67,11,8.67,28.4,0,18-8.56,29.89t-23.9,11.86q-9.64,0-15.49-3.83-3.51-2.27-7.56-7.95v9.72H263.21V60.69h20.23v46.37a29.7,29.7,0,0,1,8.5-8.23q5.51-3.55,14-3.55Q321.31,95.28,330,106.28Zm-16.92,47.14q4.38-6.32,4.37-16.61a37.15,37.15,0,0,0-2.15-13.63q-4.07-10.22-15-10.22T285,123q-2.15,5.33-2.15,13.77,0,9.94,4.44,16.47t13.53,6.53A14,14,0,0,0,313.07,153.42Z" transform="translate(-61.51 -60.55)"/><path class="cls-2" d="M373.38,174.36H353.15V60.55h20.23Z" transform="translate(-61.51 -60.55)"/><path class="cls-2" d="M413.92,87.75H393.41V73.66h20.51ZM393.41,97h20.51v77.38H393.41Z" transform="translate(-61.51 -60.55)"/><path class="cls-2" d="M498.05,164.9Q488.25,177,468.3,177T438.56,164.9q-9.79-12.09-9.79-29.12,0-16.74,9.79-29T468.3,94.49q19.94,0,29.75,12.27t9.79,29Q507.85,152.8,498.05,164.9Zm-16.19-11.18q4.77-6.31,4.76-17.94t-4.76-17.9q-4.75-6.27-13.63-6.28t-13.67,6.28q-4.79,6.27-4.79,17.9t4.79,17.94q4.79,6.31,13.67,6.31T481.86,153.71Z" transform="translate(-61.51 -60.55)"/></svg>